<svg width="23" height="23" viewBox="0 0 23 23" fill="none" xmlns="http://www.w3.org/2000/svg">
<g id="ph:facebook-logo">
<path id="Vector" d="M11.7073 2.48535C9.93961 2.48535 8.21163 3.00953 6.74187 3.99159C5.27211 4.97366 4.12656 6.3695 3.45011 8.00262C2.77365 9.63573 2.59666 11.4328 2.94151 13.1665C3.28637 14.9002 4.13758 16.4927 5.38751 17.7426C6.63744 18.9925 8.22995 19.8438 9.96366 20.1886C11.6974 20.5335 13.4944 20.3565 15.1275 19.68C16.7606 19.0036 18.1565 17.858 19.1385 16.3883C20.1206 14.9185 20.6448 13.1905 20.6448 11.4229C20.6423 9.05325 19.6998 6.78141 18.0243 5.10585C16.3487 3.43028 14.0769 2.48785 11.7073 2.48535ZM12.3948 18.9536V13.4854H14.4573C14.6396 13.4854 14.8145 13.4129 14.9434 13.284C15.0723 13.1551 15.1448 12.9802 15.1448 12.7979C15.1448 12.6155 15.0723 12.4406 14.9434 12.3117C14.8145 12.1828 14.6396 12.1104 14.4573 12.1104H12.3948V10.0479C12.3948 9.68318 12.5396 9.33344 12.7975 9.07558C13.0554 8.81772 13.4051 8.67285 13.7698 8.67285H15.1448C15.3271 8.67285 15.502 8.60042 15.6309 8.47149C15.7598 8.34256 15.8323 8.16769 15.8323 7.98535C15.8323 7.80302 15.7598 7.62815 15.6309 7.49922C15.502 7.37028 15.3271 7.29785 15.1448 7.29785H13.7698C13.0404 7.29785 12.341 7.58758 11.8252 8.10331C11.3095 8.61903 11.0198 9.31851 11.0198 10.0479V12.1104H8.95728C8.77494 12.1104 8.60007 12.1828 8.47114 12.3117C8.34221 12.4406 8.26978 12.6155 8.26978 12.7979C8.26978 12.9802 8.34221 13.1551 8.47114 13.284C8.60007 13.4129 8.77494 13.4854 8.95728 13.4854H11.0198V18.9536C9.08171 18.7766 7.28645 17.8594 6.00742 16.3926C4.72839 14.9258 4.06406 13.0224 4.15261 11.0783C4.24116 9.13415 5.07578 7.29901 6.48286 5.95457C7.88994 4.61012 9.76115 3.85987 11.7073 3.85987C13.6534 3.85987 15.5246 4.61012 16.9317 5.95457C18.3388 7.29901 19.1734 9.13415 19.2619 11.0783C19.3505 13.0224 18.6862 14.9258 17.4071 16.3926C16.1281 17.8594 14.3328 18.7766 12.3948 18.9536Z" fill="black"/>
</g>
</svg>
