<svg width="23" height="23" viewBox="0 0 23 23" fill="none" xmlns="http://www.w3.org/2000/svg">
<g id="typcn:social-linkedin-circular">
<path id="Vector" d="M9.90419 14.4479H8.43753V9.6821H9.90419V14.4479ZM9.17086 9.07068C8.64194 9.07068 8.37703 8.82593 8.37703 8.33735C8.37538 8.2393 8.39502 8.14206 8.43459 8.05233C8.47415 7.96261 8.53269 7.88252 8.60619 7.8176C8.75905 7.67499 8.96189 7.59827 9.17086 7.60402C9.69978 7.60402 9.96469 7.84969 9.96469 8.33827C9.96469 8.82685 9.70069 9.07068 9.17086 9.07068ZM15.3437 14.4479H13.8468V11.7895C13.8468 11.0974 13.6011 10.7509 13.1125 10.7509C12.7257 10.7509 12.4718 10.9444 12.348 11.3312C12.3086 11.3926 12.2875 11.5154 12.2875 11.6979V14.4479H10.7906V11.2093C10.7906 10.4759 10.7796 9.96719 10.7604 9.6821H12.0437L12.1354 10.3229C12.4718 9.81319 12.9604 9.55927 13.6323 9.55927C14.1429 9.55927 14.5544 9.7371 14.8698 10.0937C15.1869 10.4503 15.3446 10.9645 15.3446 11.6374V14.4479H15.3437ZM11.7073 19.6729C7.15786 19.6729 3.45728 15.9723 3.45728 11.4229C3.45728 6.87344 7.15786 3.17285 11.7073 3.17285C16.2567 3.17285 19.9573 6.87344 19.9573 11.4229C19.9573 15.9723 16.2567 19.6729 11.7073 19.6729ZM11.7073 5.00618C8.16986 5.00618 5.29061 7.88544 5.29061 11.4229C5.29061 14.9603 8.16986 17.8395 11.7073 17.8395C15.2447 17.8395 18.1239 14.9603 18.1239 11.4229C18.1239 7.88544 15.2447 5.00618 11.7073 5.00618Z" fill="black"/>
</g>
</svg>
